<svg width="238" height="73" viewBox="0 0 238 73" fill="none" xmlns="http://www.w3.org/2000/svg">
<path d="M14.32 36.112C11.12 36.112 8.464 35.44 6.352 34.096C4.24 32.752 2.672 31.024 1.648 28.912C0.624 26.8 0.112 24.56 0.112 22.192C0.112 19.12 0.912 16.08 2.512 13.072C4.176 10 6.768 7.472 10.288 5.488C13.872 3.43999 18.48 2.41599 24.112 2.41599C28.208 2.41599 32.016 2.70399 35.536 3.27999C39.056 3.792 42.416 4.336 45.616 4.912C48.816 5.488 51.952 5.776 55.024 5.776C57.84 5.776 60.464 5.392 62.896 4.62399C65.392 3.856 67.632 2.512 69.616 0.591995C71.152 1.488 72.304 2.8 73.072 4.528C73.84 6.192 74.224 8.048 74.224 10.096C74.224 12.144 73.744 14.16 72.784 16.144C71.888 18.128 70.48 19.792 68.56 21.136C66.704 22.416 64.304 23.056 61.36 23.056C57.136 23.056 53.392 22.416 50.128 21.136C46.864 19.856 44.016 18.352 41.584 16.624C39.152 14.896 37.072 13.36 35.344 12.016L35.152 10.96C33.936 10.448 32.88 10.192 31.984 10.192C31.152 10.128 30.288 10.096 29.392 10.096C26.384 10.096 23.92 11.056 22 12.976C20.144 14.832 19.248 17.68 19.312 21.52C19.312 23.376 19.472 25.136 19.792 26.8C20.112 28.464 20.816 30.448 21.904 32.752C20.88 33.968 19.632 34.832 18.16 35.344C16.752 35.856 15.472 36.112 14.32 36.112ZM26.896 72.112C24.144 72.112 21.68 71.6 19.504 70.576C17.328 69.552 16.176 68.208 16.048 66.544C17.136 66.096 17.936 65.488 18.448 64.72C19.024 63.888 19.472 62.768 19.792 61.36C20.112 59.952 20.464 58.064 20.848 55.696L26.224 27.856C27.44 21.392 30.16 16.432 34.384 12.976C38.608 9.456 44.592 7.248 52.336 6.352L43.504 54.736C42.8 58.448 41.872 61.616 40.72 64.24C39.568 66.8 37.904 68.752 35.728 70.096C33.616 71.44 30.672 72.112 26.896 72.112ZM93.1705 71.92C84.5945 71.92 77.9705 69.584 73.2985 64.912C68.6905 60.24 66.3865 53.296 66.3865 44.08C66.3865 39.6 66.9625 35.408 68.1145 31.504C69.2665 27.536 70.9305 23.92 73.1065 20.656C75.3465 17.392 78.0665 14.576 81.2665 12.208C84.5305 9.776 88.2105 7.92 92.3065 6.64C96.4665 5.36 101.043 4.72 106.035 4.72C111.091 4.72 115.123 5.52 118.131 7.12C121.203 8.656 123.411 10.64 124.755 13.072C126.163 15.504 126.867 18.032 126.867 20.656C126.867 23.344 126.195 26 124.851 28.624C123.571 31.248 121.715 33.424 119.283 35.152C116.851 36.88 113.939 37.744 110.547 37.744C106.899 37.744 103.923 36.784 101.619 34.864C99.3145 32.88 98.1625 30.48 98.1625 27.664C98.1625 26.832 98.2585 26 98.4505 25.168C98.9625 25.232 99.4425 25.328 99.8905 25.456C100.403 25.52 100.883 25.552 101.331 25.552C102.803 25.552 104.115 25.264 105.267 24.688C106.483 24.048 107.443 23.12 108.147 21.904C108.851 20.688 109.203 19.248 109.203 17.584C109.203 16.048 108.755 14.672 107.859 13.456C106.963 12.24 105.587 11.632 103.731 11.632C102.067 11.632 100.499 12.112 99.0265 13.072C97.5545 13.968 96.2105 15.28 94.9945 17.008C93.7785 18.672 92.7225 20.656 91.8265 22.96C90.9945 25.264 90.3225 27.824 89.8105 30.64C89.3625 33.392 89.1385 36.272 89.1385 39.28C89.1385 43.248 89.5545 46.48 90.3865 48.976C91.2825 51.408 92.6265 53.2 94.4185 54.352C96.2745 55.44 98.5785 55.984 101.331 55.984C102.483 55.984 103.699 55.824 104.979 55.504C106.259 55.184 107.539 54.672 108.819 53.968C110.163 53.264 111.411 52.336 112.562 51.184C113.715 49.968 114.739 48.496 115.635 46.768C117.683 47.6 119.155 48.72 120.051 50.128C121.011 51.536 121.491 53.072 121.491 54.736C121.491 56.72 120.947 58.736 119.859 60.784C118.771 62.832 117.075 64.688 114.771 66.352C112.467 68.016 109.523 69.36 105.939 70.384C102.355 71.408 98.0985 71.92 93.1705 71.92ZM130.789 53.968C129.573 53.136 128.645 52.24 128.005 51.28C127.429 50.32 127.141 49.136 127.141 47.728C127.141 46 127.589 44.528 128.485 43.312C129.381 42.032 130.821 41.392 132.805 41.392H150.469C151.557 41.392 152.293 41.36 152.677 41.296C153.125 41.168 153.669 40.848 154.309 40.336C155.525 40.912 156.389 41.68 156.901 42.64C157.413 43.6 157.669 44.688 157.669 45.904C157.669 47.824 157.093 49.392 155.941 50.608C154.789 51.76 153.253 52.336 151.333 52.336H135.397C133.861 52.336 132.837 52.496 132.325 52.816C131.813 53.072 131.301 53.456 130.789 53.968ZM190.32 72.304C186.736 72.304 183.312 72.112 180.048 71.728C176.848 71.344 174.192 70.736 172.08 69.904C170.032 69.072 168.944 68.016 168.816 66.736C169.904 66.352 170.704 65.808 171.216 65.104C171.728 64.4 172.144 63.344 172.464 61.936C172.784 60.528 173.168 58.64 173.616 56.272L178.896 27.664C179.6 24.08 180.912 20.976 182.832 18.352C184.816 15.728 187.664 13.36 191.376 11.248L191.184 10.48C190.736 10.352 190.32 10.256 189.936 10.192C189.616 10.128 189.264 10.096 188.88 10.096C185.296 9.904 182.288 10.608 179.856 12.208C177.488 13.744 175.696 15.92 174.48 18.736C173.264 21.552 172.656 24.784 172.656 28.432C172.656 30.288 172.816 32.08 173.136 33.808C173.456 35.536 174.128 37.52 175.152 39.76C174.128 40.848 172.912 41.648 171.504 42.16C170.096 42.672 168.848 42.928 167.76 42.928C164.688 42.928 162.096 42.288 159.984 41.008C157.872 39.664 156.272 37.936 155.184 35.824C154.096 33.648 153.552 31.344 153.552 28.912C153.552 25.264 154.32 21.968 155.855 19.024C157.392 16.08 159.824 13.552 163.152 11.44C166.48 9.328 170.832 7.728 176.208 6.64C181.584 5.488 188.112 4.912 195.792 4.912C204.752 4.912 212.336 5.744 218.544 7.408C224.752 9.072 229.488 11.952 232.752 16.048C236.016 20.08 237.648 25.648 237.648 32.752C237.648 38.704 236.496 44.112 234.192 48.976C231.888 53.776 228.592 57.936 224.304 61.456C220.08 64.912 215.088 67.6 209.328 69.52C203.568 71.376 197.232 72.304 190.32 72.304ZM193.392 65.584C197.488 65.584 200.976 64.368 203.856 61.936C206.736 59.504 209.072 56.304 210.864 52.336C212.656 48.368 213.968 44.048 214.8 39.376C215.632 34.64 216.048 29.968 216.048 25.36C216.048 21.84 215.6 19.088 214.704 17.104C213.808 15.12 212.592 13.712 211.056 12.88C209.584 12.048 207.984 11.664 206.256 11.728C205.232 12.176 204.432 13.072 203.856 14.416C203.28 15.696 202.864 16.976 202.608 18.256L195.984 53.008C195.216 57.04 194.32 60.016 193.296 61.936C192.336 63.792 191.376 64.944 190.416 65.392C190.864 65.456 191.376 65.52 191.952 65.584C192.528 65.584 193.008 65.584 193.392 65.584Z" fill="url(#paint0_linear_1_40)"/>
<defs>
<linearGradient id="paint0_linear_1_40" x1="60.5" y1="-22.5" x2="218.5" y2="109" gradientUnits="userSpaceOnUse">
<stop stop-color="#CE9FFC"/>
<stop offset="1" stop-color="#7367F0"/>
</linearGradient>
</defs>
</svg>
